@startuml

skinparam nodesep 100

class "SSA Thing" as ssat << (D, orchid) Thing Description >>

class "SSA Application Base" as abtm  << (M, cyan) Thing Model, Protocol-agnostic >>

class "SSA Application" as atm << (M, cyan) Thing Model >>

class "SSA Embedded Core Base" as rbtm << (M, cyan) Thing Model, Protocol-agnostic >>

class "SSA Embedded Core" as rtm << (M, cyan) Thing Model >>

class "Platform" as ptm << (M, cyan) Thing Model >>

class "SSA Edge Connector" as ectm << (M, cyan) Thing Model >>

ssat ..|> atm : instantiates
atm "0..*"..> "0..1" abtm : extends

atm "0..*" -right--* "1" ptm : references
atm "0..*" -left--* "1" rtm : references

rtm "0..*" ..> "0..1"rbtm : extends

rtm "0..*" -left..> "1" ectm : interfaces with

hide empty members

@enduml
